<?xml version="1.0" encoding="utf-8" ?><svg xmlns="http://www.w3.org/2000/svg" xmlns:xlink="http://www.w3.org/1999/xlink" width="1024" height="1024" viewBox="0 0 1024 1024"><path fill="white" d="M0 0L1024 0L1024 1024L0 1024L0 0Z"/><path d="M147.275 298.886C181.637 310.635 216.54 320.738 251.865 329.163C377.95 359.437 498.115 365.591 625.565 338.93C648.522 334.201 671.306 328.666 693.875 322.336C709.214 317.882 723.973 312.615 739.23 307.897C750.972 304.016 765.042 302.164 776.776 299.082C797.763 293.568 842.154 293.913 852.95 317.632C868.259 351.266 824.123 382.841 799.257 394.01C765.309 409.26 729.657 417.608 693.398 420.726L693.476 453.202C733.144 476.854 777.544 509.412 808.084 544.26C769.851 549.842 732.741 561.435 698.128 578.608C688.283 583.382 673.825 591.081 664.91 597.458C675.98 602.633 687.973 607.495 699.249 612.355C719.398 620.995 739.407 629.959 759.267 639.246C683.614 671.883 615.399 744.27 557.673 801.652C540.838 818.387 521.07 837.753 505.689 855.547C496.174 846.047 486.348 834.862 476.759 824.978C452.864 800.41 428.593 776.211 403.953 752.389C357.982 708.459 310.573 666.678 252.37 639.356C260.511 634.763 271.407 630.792 280.054 626.758C301.617 616.7 325.266 607.894 346.645 597.697C307.635 572.756 249.121 549.433 202.839 544.691C232.103 512.79 276.021 477.108 313.448 455.364C313.262 441.99 312.979 427.847 313.369 414.487L351.935 414.492C352.555 404.612 351.606 394.129 352.471 383.684C293.09 369.037 230.866 346.65 177.501 317.024C169.534 312.601 154.274 304.003 147.275 298.886Z"/><path fill="#D3D2C8" d="M352.471 383.684C470.642 412.883 536.579 419.814 656.603 389.272L656.454 414.511L351.935 414.492C352.555 404.612 351.606 394.129 352.471 383.684Z"/><path fill="#D3D2C8" d="M354.986 498.259C367.212 497.895 380.627 498.163 392.958 498.158L465.631 498.181L655.195 498.079C650.539 536.684 636.005 554.907 612.602 584.501C625.308 611.963 629.859 649.981 597.984 667.28C592.012 670.521 585.715 671.325 579.009 671.803C568.697 695.318 558.832 720.792 548.995 744.665C538.005 771.829 526.001 798.583 515.419 825.925C512.427 833.654 509.162 841.795 505.564 849.251C503.558 845.331 500.959 838.561 499.23 834.372L487.872 806.976L451.834 721.582C445.631 706.671 437.639 685.437 430.893 671.326C401.036 668.884 387.053 646.615 389.485 617.508C390.516 605.179 394.425 596.448 398.947 585.078C395.39 580.013 391.097 575.039 387.314 570.048C373.2 551.425 355.32 521.89 354.986 498.259Z"/><path fill="#E54D6C" d="M445.884 542.691C456.885 541.987 467.398 548.713 477.803 552.366C486.808 555.554 496.267 557.271 505.817 557.449C515.436 557.571 528.937 555.437 537.885 551.873C547.525 548.034 554.691 543.215 565.564 542.596C573.83 542.122 581.902 545.012 587.95 550.636C594.645 556.86 598.042 565.33 601.203 573.77C606.207 587.135 611.25 600.236 611.734 614.739C612.184 628.246 608.607 642.04 599.022 652.01C590.984 660.37 581.84 663.377 570.46 663.618C560.658 663.558 554.376 659.601 545.062 656.945C536.735 654.638 528.208 653.125 519.595 652.427C503.117 651.04 485.018 652.724 469.134 657.427C461.685 659.458 454.061 663.445 446.305 664.087C422.323 666.071 403.991 646.514 401.757 623.865C401.188 618.307 401.382 612.698 402.333 607.194C404.455 594.624 414.531 564.126 422.752 553.385C427.994 546.536 437.422 543.528 445.884 542.691Z"/><path d="M440.378 569.093C452.872 568.558 457.068 577.122 465.723 583.574C474.932 590.439 482.887 607.925 471.225 616.04C465.19 616.03 462.074 613.465 457.743 609.549C447.484 600.272 431.675 591.164 435.239 574.833C435.84 572.078 438.023 570.294 440.378 569.093Z"/><path d="M567.089 568.096C583.464 566.684 578.866 587.124 573.065 593.19C568.202 598.274 553.579 613.517 548.461 616.011C537.397 615.95 536.125 604.527 538.828 596.559C541.931 587.41 558.84 571.92 567.089 568.096Z"/><path fill="#E54D6C" d="M502.109 660.709C522.71 658.865 556 664.8 574.202 674.416C558.861 686.952 531.127 696.989 511.622 698.784C491.009 702.134 456.613 687.826 439.891 675.59C454.37 666.605 485 661.764 502.109 660.709Z"/><path d="M437.255 158.684C455.887 157.943 459.774 167.869 472.729 178.956C489.739 193.513 512.479 195.431 531.106 182.575C543.072 174.317 550.143 160.084 566.244 158.818C578.566 157.85 589.353 163.051 598.528 170.811C639.421 205.399 647.249 269.337 651.823 319.291C633.813 324.038 613.641 327.646 595.382 330.733C560.82 336.139 519.725 339.559 484.878 338.891C441.925 338.067 397.003 331.482 354.578 324.706C356.376 315.339 357.386 303.206 358.469 293.409C363.238 250.272 384.103 164.227 437.255 158.684Z"/></svg>